HIERARCHY
ROOT Hips
{
	OFFSET 0.000000 0.000000 0.000000
	CHANNELS 6 Xposition Yposition Zposition Zrotation Yrotation Xrotation 
	JOINT LHipJoint
	{
		OFFSET 0.000000 0.000000 0.000000
		CHANNELS 3 Zrotation Yrotation Xrotation
		JOINT LeftUpLeg
		{
			OFFSET 1.363060 -1.794630 0.839290
			CHANNELS 3 Zrotation Yrotation Xrotation
			JOINT LeftLeg
			{
				OFFSET 2.448110 -6.726130 0.000000
				CHANNELS 3 Zrotation Yrotation Xrotation
				JOINT LeftFoot
				{
					OFFSET 2.562200 -7.039590 0.000000
					CHANNELS 3 Zrotation Yrotation Xrotation
					JOINT LeftToeBase
					{
						OFFSET 0.157640 -0.433110 2.322550
						CHANNELS 3 Zrotation Yrotation Xrotation
						End Site
						{
							OFFSET 0.000000 0.000000 0.000000
						}
					}
				}
			}
		}
	}
	JOINT RHipJoint
	{
		OFFSET 0.000000 0.000000 0.000000
		CHANNELS 3 Zrotation Yrotation Xrotation
		JOINT RightUpLeg
		{
			OFFSET -1.305520 -1.794630 0.839290
			CHANNELS 3 Zrotation Yrotation Xrotation
			JOINT RightLeg
			{
				OFFSET -2.542530 -6.985550 0.000000
				CHANNELS 3 Zrotation Yrotation Xrotation
				JOINT RightFoot
				{
					OFFSET -2.568260 -7.056230 0.000000
					CHANNELS 3 Zrotation Yrotation Xrotation
					JOINT RightToeBase
					{
						OFFSET -0.164730 -0.452590 2.363150
						CHANNELS 3 Zrotation Yrotation Xrotation
						End Site
						{
							OFFSET 0.000000 0.000000 0.000000
						}
					}
				}
			}
		}
	}
	JOINT LowerBack
	{
		OFFSET 0.000000 0.000000 0.000000
		CHANNELS 3 Zrotation Yrotation Xrotation
		JOINT Spine
		{
			OFFSET 0.028270 2.035590 -0.193380
			CHANNELS 3 Zrotation Yrotation Xrotation
			JOINT Spine1
			{
				OFFSET 0.056720 2.048850 -0.042750
				CHANNELS 3 Zrotation Yrotation Xrotation
				JOINT Neck
				{
					OFFSET 0.000000 0.000000 0.000000
					CHANNELS 3 Zrotation Yrotation Xrotation
					JOINT Neck1
					{
						OFFSET -0.054170 1.746240 0.172020
						CHANNELS 3 Zrotation Yrotation Xrotation
						JOINT Head
						{
							OFFSET 0.104070 1.761360 -0.123970
							CHANNELS 3 Zrotation Yrotation Xrotation
							End Site
							{
								OFFSET 0.000000 0.000000 0.000000
							}
						}
					}
				}
				JOINT LeftShoulder
				{
					OFFSET 0.000000 0.000000 0.000000
					CHANNELS 3 Zrotation Yrotation Xrotation
					JOINT LeftArm
					{
						OFFSET 3.362410 1.200890 -0.311210
						CHANNELS 3 Zrotation Yrotation Xrotation
						JOINT LeftForeArm
						{
							OFFSET 4.983000 -0.000000 -0.000000
							CHANNELS 3 Zrotation Yrotation Xrotation
							JOINT LeftHand
							{
								OFFSET 3.483560 -0.000000 -0.000000
								CHANNELS 3 Zrotation Yrotation Xrotation
								JOINT LeftFingerBase
								{
									OFFSET 0.000000 0.000000 0.000000
									CHANNELS 3 Zrotation Yrotation Xrotation
									JOINT LeftHandIndex1
									{
										OFFSET 0.715260 -0.000000 -0.000000
										CHANNELS 3 Zrotation Yrotation Xrotation
										End Site
										{
											OFFSET 0.000000 0.000000 0.000000
										}
									}
								}
								JOINT LThumb
								{
									OFFSET 0.000000 0.000000 0.000000
									CHANNELS 3 Zrotation Yrotation Xrotation
									End Site
									{
										OFFSET 0.000000 0.000000 0.000000
									}
								}
							}
						}
					}
				}
				JOINT RightShoulder
				{
					OFFSET 0.000000 0.000000 0.000000
					CHANNELS 3 Zrotation Yrotation Xrotation
					JOINT RightArm
					{
						OFFSET -3.136600 1.374050 -0.404650
						CHANNELS 3 Zrotation Yrotation Xrotation
						JOINT RightForeArm
						{
							OFFSET -5.241900 -0.000000 -0.000000
							CHANNELS 3 Zrotation Yrotation Xrotation
							JOINT RightHand
							{
								OFFSET -3.444170 -0.000000 -0.000000
								CHANNELS 3 Zrotation Yrotation Xrotation
								JOINT RightFingerBase
								{
									OFFSET 0.000000 0.000000 0.000000
									CHANNELS 3 Zrotation Yrotation Xrotation
									JOINT RightHandIndex1
									{
										OFFSET -0.622530 -0.000000 -0.000000
										CHANNELS 3 Zrotation Yrotation Xrotation
										End Site
										{
											OFFSET 0.000000 0.000000 0.000000
										}
									}
								}
								JOINT RThumb
								{
									OFFSET 0.000000 0.000000 0.000000
									CHANNELS 3 Zrotation Yrotation Xrotation
									End Site
									{
										OFFSET 0.000000 0.000000 0.000000
									}
								}
							}
						}
					}
				}
			}
		}
	}
}
MOTION
Frames: 9
Frame Time: 0.008333
26.140629 19.354234 49.905812 -3.579515 -1.082966 8.230877 -16.933062 5.270093 5.804025 4.369109 2.228741 -21.037246 -31.751717 -39.195154 58.994821 -39.375557 58.435666 -36.469813 -0.647682 0.528212 -4.572028 14.221391 -3.505538 4.887070 -4.363980 5.166274 -24.174492 34.944066 29.906386 61.375094 33.701131 -54.184702 -31.842850 -0.007402 0.031570 -4.374093 2.213455 -1.000374 1.507924 0.895811 -1.042547 -4.259588 -1.061868 -1.133872 -2.583096 -3.379592 0.215222 -4.217119 8.284580 0.136596 20.648182 -0.573545 2.556456 -12.495605 2.557321 -7.963785 -0.252593 -79.084912 -12.736364 47.095780 -3.179053 -51.068070 14.340189 3.893448 -0.656127 11.277313 -0.736469 -1.473214 -0.000000 0.000000 0.000000 0.000000 0.000000 0.000000 0.000000 -0.234219 6.506051 2.098686 67.754373 7.244924 20.648181 17.254168 34.527778 31.266496 -5.501291 -0.147959 19.139471 1.386045 1.799645 0.000000 0.000000 0.000000 0.000000 0.000000 0.000000 0.000000
26.132959 19.376057 49.909557 -3.595803 -1.247025 8.269283 -16.953029 5.303222 5.811423 4.296759 2.532239 -21.160733 -32.069752 -39.621196 59.438030 -39.880890 58.582116 -36.586631 -0.700667 0.575908 -4.938073 14.219164 -3.462861 4.861646 -4.131890 4.939249 -24.513769 35.853649 30.412377 62.493291 33.305675 -55.154589 -31.458309 -0.114204 -0.384462 -3.800790 2.217245 -1.034393 1.481199 0.898833 -1.075716 -4.261817 -0.995015 -1.172450 -2.534555 -3.385465 0.179151 -4.268460 8.191338 0.196462 20.696300 -0.669175 2.599615 -12.553389 2.895910 -7.798181 -0.257334 -78.952008 -12.469761 47.942274 -2.447935 -52.219246 12.994036 3.660936 -0.663145 10.647199 -0.690561 -1.430724 -0.000000 0.000000 0.000000 0.000000 0.000000 0.000000 0.000000 -0.496536 6.345281 2.208760 67.691267 7.619401 20.997995 18.325143 35.794920 32.733266 -4.824921 -0.633641 19.547891 1.085986 1.892548 0.000000 0.000000 0.000000 0.000000 0.000000 0.000000 0.000000
26.121877 19.390389 49.913689 -3.599134 -1.455131 8.227496 -16.976916 5.334176 5.812262 4.306379 2.662658 -21.030359 -32.015220 -39.859008 59.384465 -40.310590 58.628422 -36.660460 -0.665636 0.585761 -4.718197 14.233984 -3.411243 4.806216 -3.944143 4.830687 -24.665499 36.661893 30.844101 63.346105 33.029519 -56.609830 -31.276880 -0.066113 -0.199746 -3.980936 2.189258 -1.043780 1.542332 0.898736 -1.081602 -4.262746 -0.989250 -1.179985 -2.570402 -3.346667 0.157177 -4.233201 8.148003 0.279837 20.700713 -0.767344 2.674865 -12.507760 3.316008 -7.674288 -0.280005 -78.810904 -12.140065 48.555295 -1.988504 -53.441993 12.020242 3.704875 -0.791102 10.082870 -0.740571 -1.358757 -0.000000 0.000000 0.000000 0.000000 0.000000 0.000000 0.000000 -0.947590 6.244981 2.183441 67.873526 7.875484 20.843971 19.935566 37.040765 34.047630 -5.044026 -0.523493 19.364989 1.186347 1.835990 0.000000 0.000000 0.000000 0.000000 0.000000 0.000000 0.000000
26.114399 19.398339 49.917537 -3.629496 -1.537344 8.280498 -16.985840 5.291069 5.871945 4.465703 2.250408 -20.809473 -31.443248 -39.755558 58.674848 -40.746532 58.640725 -36.799388 -0.671420 0.592258 -4.758766 14.215882 -3.370561 4.755956 -3.901078 4.732243 -24.802173 36.238505 30.822868 62.935648 32.087658 -56.046734 -30.144538 -0.132334 -0.454848 -4.227473 2.254719 -1.069930 1.503020 0.901487 -1.111733 -4.264101 -1.000885 -1.214474 -2.534563 -3.312293 0.120950 -4.267162 8.081816 0.336425 20.742145 -0.884290 2.716299 -12.604794 3.608117 -7.528720 -0.162878 -78.511389 -12.011501 48.742516 -2.420682 -54.773906 12.059864 3.226292 -0.534119 9.761109 -0.598192 -1.378990 -0.000000 0.000000 0.000000 0.000000 0.000000 0.000000 0.000000 -1.282780 6.110786 2.152446 67.912439 8.129310 21.111538 21.183704 38.374197 35.440130 -5.431687 -0.414457 19.440146 1.317632 1.790968 0.000000 0.000000 0.000000 0.000000 0.000000 0.000000 0.000000
26.105672 19.393131 49.923093 -3.716339 -1.506505 8.446635 -16.972623 5.219838 5.949887 4.699983 1.660738 -20.610149 -29.977639 -39.156244 57.036110 -40.262700 57.997254 -36.452395 -0.578505 0.723232 -4.235288 14.206926 -3.320905 4.717496 -3.789383 4.626874 -24.972106 34.977052 30.405800 61.663596 32.175909 -54.854046 -30.138540 -0.108808 -0.363622 -4.309537 2.382883 -1.126419 1.349739 0.907954 -1.178848 -4.266775 -0.974367 -1.280268 -2.520434 -3.301465 0.084242 -4.281091 8.003490 0.442695 20.705446 -0.914397 2.799295 -12.444852 3.961201 -7.444610 -0.086570 -78.336267 -11.852595 48.921494 -2.507659 -56.070128 11.782856 3.481993 -0.436568 9.351342 -0.701628 -1.383213 -0.000000 0.000000 0.000000 0.000000 0.000000 0.000000 0.000000 -1.618681 6.006556 2.120888 67.876878 8.306153 21.125079 22.789688 39.626749 37.728199 -5.130174 -0.805635 20.089522 1.159010 1.859036 0.000000 0.000000 0.000000 0.000000 0.000000 0.000000 0.000000
26.093585 19.389788 49.932713 -3.683856 -1.857585 8.296620 -17.073312 5.323083 6.027244 4.978932 1.009951 -19.965637 -28.399337 -38.556050 55.130130 -40.416515 57.837981 -35.771748 -0.642612 0.671302 -4.616110 14.215340 -3.398720 4.679387 -3.917516 5.015176 -24.647816 33.579622 30.063727 60.112182 31.543334 -53.815501 -29.393071 -0.175762 -0.621386 -4.024269 2.347243 -1.103578 1.473940 0.904224 -1.149872 -4.264835 -1.035721 -1.254875 -2.521696 -3.235133 0.028678 -4.275259 7.891580 0.428413 20.775994 -0.901123 2.756839 -12.666553 4.380309 -7.235820 -0.023790 -78.063299 -11.635458 48.145270 -4.774447 -57.398497 13.936647 3.205464 -0.413925 9.288411 -0.634947 -1.328829 -0.000000 0.000000 0.000000 0.000000 0.000000 0.000000 0.000000 -2.165504 5.888262 2.074275 68.125602 8.610818 21.002685 24.889302 40.960887 39.492235 -5.092860 -1.126002 19.712685 1.161346 1.892561 0.000000 0.000000 0.000000 0.000000 0.000000 0.000000 0.000000
26.086600 19.378914 49.939537 -3.682892 -1.715504 8.387994 -17.115839 5.309100 6.100292 5.210417 0.031772 -19.546908 -26.408831 -37.614273 52.961604 -39.953377 57.151270 -34.970021 -0.612369 0.670274 -4.422328 14.224594 -3.419773 4.676250 -3.877713 4.716996 -24.693564 31.973072 29.770471 58.463480 32.175912 -51.931805 -29.821769 -0.134914 -0.464589 -4.144939 2.445505 -1.161185 1.378904 0.910512 -1.215659 -4.265680 -1.085518 -1.314437 -2.597119 -3.192520 0.006998 -4.198630 7.868542 0.478505 20.773419 -1.009642 2.798005 -12.687149 4.743302 -7.253724 0.103427 -77.822325 -11.494501 47.146248 -7.331053 -58.726605 16.535935 3.290194 -0.264835 9.246106 -0.675004 -1.324044 -0.000000 0.000000 0.000000 0.000000 0.000000 0.000000 0.000000 -2.623952 5.874615 1.818590 68.184071 8.428565 20.850372 26.811794 41.959587 42.518119 -4.848746 -1.065099 20.804897 1.050188 1.803893 0.000000 0.000000 0.000000 0.000000 0.000000 0.000000 0.000000
26.074532 19.363314 49.949502 -3.672554 -1.835333 8.399393 -17.174629 5.302298 6.207701 5.461681 -0.848603 -19.009128 -25.224636 -37.043075 51.502864 -40.114973 57.028345 -35.208628 -0.583233 0.700766 -4.253048 14.230971 -3.457727 4.642863 -3.976030 4.862445 -24.479143 29.707054 29.114120 56.043307 32.772896 -49.667902 -29.474217 -0.130582 -0.446985 -3.802328 2.449893 -1.164410 1.342283 0.909910 -1.217631 -4.267146 -1.102497 -1.318576 -2.621166 -3.138769 -0.013372 -4.168615 7.831855 0.441622 20.807087 -1.122799 2.753358 -12.730107 5.069364 -7.191302 0.150597 -77.705877 -11.214806 48.553950 -5.701570 -60.231212 14.373808 2.690436 -0.008589 8.641313 -0.499246 -1.332611 -0.000000 0.000000 0.000000 0.000000 0.000000 0.000000 0.000000 -3.018160 5.845374 1.760095 68.225411 8.491389 20.412830 29.239850 43.000572 45.363120 -4.804905 -0.942007 21.212423 1.054934 1.686556 0.000000 0.000000 0.000000 0.000000 0.000000 0.000000 0.000000
26.060731 19.344830 49.959276 -3.672275 -1.955346 8.392363 -17.234965 5.326303 6.318458 5.746550 -1.860977 -18.383019 -23.794509 -36.270484 49.733042 -40.190936 56.798164 -35.383405 -0.525924 0.740378 -3.910284 14.277545 -3.507910 4.613145 -4.032734 5.094609 -24.155771 27.464169 28.419335 53.607340 32.729931 -47.911026 -28.888177 -0.152340 -0.530857 -3.950867 2.445059 -1.211754 1.326522 0.914278 -1.262803 -4.266413 -1.024809 -1.363678 -2.572061 -3.129810 -0.024400 -4.221332 7.766530 0.400817 20.809497 -1.232216 2.698926 -12.621871 5.410856 -7.027951 0.038718 -77.560967 -10.997330 46.831159 -9.959884 -61.248978 18.858844 2.801060 -0.063507 8.707079 -0.554270 -1.262433 -0.000000 0.000000 0.000000 0.000000 0.000000 0.000000 0.000000 -3.292508 5.638758 1.970844 68.067411 9.101798 20.224283 31.652415 44.076265 48.117677 -5.204143 -0.618406 21.484840 1.223666 1.523826 0.000000 0.000000 0.000000 0.000000 0.000000 0.000000 0.000000
